<svg width="47" height="49" viewBox="0 0 47 49" fill="none" xmlns="http://www.w3.org/2000/svg">
<path d="M23.5 5.88C26.627 5.88 29.1855 8.526 29.1855 11.76C29.1855 14.994 26.627 17.64 23.5 17.64C20.373 17.64 17.8145 14.994 17.8145 11.76C17.8145 8.526 20.373 5.88 23.5 5.88ZM23.5 0C17.1986 0 12.129 5.243 12.129 11.76C12.129 18.277 17.1986 23.52 23.5 23.52C29.8014 23.52 34.871 18.277 34.871 11.76C34.871 5.243 29.8014 0 23.5 0ZM23.5 27.44C11.371 27.44 1.42137 36.848 0 49H5.73286C7.10685 40.131 14.5454 33.32 23.5 33.32C32.4546 33.32 39.8931 40.131 41.2671 49H47C45.626 36.848 35.629 27.44 23.5 27.44Z" fill="#C5C5C5"/>
</svg>
