<svg width="47" height="49" viewBox="0 0 47 49" fill="none" xmlns="http://www.w3.org/2000/svg">
<path d="M47 0V15.68H41.36V5.88H5.64V15.68H0V0H47ZM2.82 41.16V49H10.34V41.16H2.82ZM36.66 41.16V49H44.18V41.16H36.66ZM47 19.6V37.24H0V19.6H47ZM13.16 28.42C13.16 25.7152 11.0544 23.52 8.46 23.52C5.8656 23.52 3.76 25.7152 3.76 28.42C3.76 31.1248 5.8656 33.32 8.46 33.32C11.0544 33.32 13.16 31.1248 13.16 28.42ZM43.24 28.42C43.24 25.7152 41.1344 23.52 38.54 23.52C35.9456 23.52 33.84 25.7152 33.84 28.42C33.84 31.1248 35.9456 33.32 38.54 33.32C41.1344 33.32 43.24 31.1248 43.24 28.42Z" fill="#C5C5C5"/>
</svg>
