<svg width="290" height="64" viewBox="0 0 290 64" fill="none" xmlns="http://www.w3.org/2000/svg">
<g clip-path="url(#clip0_28_463)">
<path d="M112.703 57.5756C105.448 58.842 97.7102 56.6898 92.109 51.107C86.5039 45.5242 84.3431 37.8173 85.6146 30.5953C89.0469 35.2924 93.288 40.2339 98.1568 45.0833C103.022 49.9327 107.987 54.1569 112.703 57.5756ZM131.212 40.7349C133.325 32.9478 131.313 24.283 125.177 18.1712C119.04 12.0594 110.341 10.0515 102.523 12.1596C100.559 12.6886 98.6558 13.4741 96.8611 14.5201C97.509 16.9488 99.537 20.4396 102.559 24.3632C107.15 21.658 113.166 22.2752 117.117 26.2068C121.064 30.1384 121.68 36.13 118.968 40.7069C122.907 43.7167 126.412 45.7366 128.85 46.3819C129.893 44.5864 130.681 42.6907 131.212 40.7349ZM28.5167 25.5615C27.8488 25.5615 27.1929 25.6056 26.5491 25.6978C24.167 29.8458 22.811 34.6431 22.811 39.761V56.802H34.2185V39.761C34.2185 35.7412 35.6188 32.0421 37.9606 29.1284C35.4498 26.9041 32.1422 25.5615 28.5167 25.5615ZM186.206 0V11.2097C182.472 12.1676 178.536 12.1676 174.802 11.2097V0H186.206ZM166.248 17.041V28.399C150.499 28.399 137.731 15.6864 137.731 0H149.138C149.138 9.41023 156.796 17.041 166.248 17.041ZM186.206 17.033V56.802H174.802V17.033C178.561 17.7985 182.448 17.7985 186.206 17.033ZM79.8445 39.761V56.802H68.437V39.761C68.437 30.3508 60.7837 22.724 51.3317 22.72C54.9129 27.4652 57.0335 33.3686 57.0335 39.761V56.802H45.626V39.761C45.626 34.7153 43.425 30.1825 39.9242 27.0604C36.8983 24.3632 32.8987 22.72 28.5167 22.72H28.5127C19.0648 22.724 11.4075 30.3508 11.4075 39.761V56.802H0V39.761C0 24.0746 12.7675 11.358 28.5167 11.358C32.5727 11.358 36.4316 12.1996 39.9242 13.7226C43.4169 12.1996 47.2717 11.358 51.3277 11.358C67.0769 11.358 79.8445 24.0746 79.8445 39.761ZM290 34.082V56.802H278.597V34.082C278.597 27.8059 273.49 22.72 267.189 22.72C260.892 22.72 255.786 27.8059 255.786 34.082V56.802H244.378V34.082C244.378 21.5337 254.59 11.358 267.189 11.358C279.788 11.358 290 21.5337 290 34.082ZM238.676 34.6511C238.676 47.5121 228.206 57.9403 215.29 57.9403C202.373 57.9403 191.908 47.5161 191.908 34.6511C191.908 21.7862 202.373 11.358 215.29 11.358C228.206 11.358 238.676 21.7862 238.676 34.6511ZM227.269 34.6511C227.269 28.0624 221.905 22.72 215.29 22.72C208.679 22.72 203.315 28.0624 203.315 34.6511C203.315 41.2359 208.679 46.5782 215.29 46.5782C221.905 46.5742 227.269 41.2359 227.269 34.6511ZM166.244 45.0553V57.2148C160.57 58.6737 154.406 57.9403 149.134 54.8944C148.004 54.2451 146.913 53.4876 145.879 52.622C140.499 48.1252 137.727 41.6888 137.727 35.2042V13.0292C139.047 15.8908 140.789 18.5239 142.877 20.8404C144.716 22.8843 146.817 24.6838 149.134 26.1867V35.2082C149.134 38.4505 150.519 41.6727 153.211 43.9211C156.985 47.0752 162.212 47.3758 166.244 45.0553Z" fill="url(#paint0_linear_28_463)"/>
<path d="M136.87 62.7575C132.194 67.4145 115.761 58.6055 100.173 43.0754C84.5847 27.5453 75.7364 11.1816 80.412 6.52456C83.1804 3.76721 90.0611 5.72701 98.4468 11.0052C96.2296 10.1716 94.5638 10.1035 93.7188 10.9451C91.047 13.6063 97.5454 24.3952 108.237 35.0438C118.928 45.6924 129.76 52.165 132.432 49.5038C133.277 48.6622 133.204 47.003 132.371 44.7947C137.671 53.1429 139.634 60.0002 136.87 62.7575ZM221.567 34.647C221.567 31.1964 218.759 28.3989 215.294 28.3989C211.83 28.3989 209.021 31.1964 209.021 34.647C209.021 38.0977 211.83 40.8951 215.294 40.8951C218.759 40.8951 221.567 38.0977 221.567 34.647Z" fill="url(#paint1_linear_28_463)"/>
</g>
<defs>
<linearGradient id="paint0_linear_28_463" x1="145" y1="57.9396" x2="145" y2="0" gradientUnits="userSpaceOnUse">
<stop stop-color="#0047BB"/>
<stop offset="0.8" stop-color="#01BEDB"/>
</linearGradient>
<linearGradient id="paint1_linear_28_463" x1="191.051" y1="67.6287" x2="105.399" y2="-18.3663" gradientUnits="userSpaceOnUse">
<stop offset="0.3" stop-color="#CC007E"/>
<stop offset="1" stop-color="#D9409E"/>
</linearGradient>
<clipPath id="clip0_28_463">
<rect width="290" height="64" fill="white"/>
</clipPath>
</defs>
</svg>
