<?xml version="1.0" encoding="utf-8"?>
<!-- Generator: Adobe Illustrator 23.1.0, SVG Export Plug-In . SVG Version: 6.00 Build 0)  -->
<svg version="1.1" id="Capa_1" xmlns="http://www.w3.org/2000/svg" xmlns:xlink="http://www.w3.org/1999/xlink" x="0px" y="0px"
	 viewBox="0 0 100 100" style="enable-background:new 0 0 100 100;" xml:space="preserve">
<style type="text/css">
	.st0{fill:#E2E2E2;}
</style>
<path class="st0" d="M50.1,0c2,0,4,0.6,5.7,1.9l40.3,29.5c4.3,3.2,5.3,9.2,2.1,13.6c-3.2,4.3-9.2,5.3-13.6,2.1L50.1,21.7L15.5,47
	c-4.3,3.2-10.4,2.2-13.6-2.1S-0.3,34.5,4,31.3L44.4,1.9C46.1,0.6,48.1,0,50.1,0z M44.4,53L4.1,82.5c-4.3,3.2-5.3,9.2-2.1,13.6
	c3.1,4.3,9.2,5.2,13.5,2l34.6-25.3l34.6,25.3c4.3,3.2,10.4,2.3,13.5-2.1c3.2-4.3,2.3-10.4-2.1-13.5L55.8,53
	c-1.7-1.2-3.7-1.9-5.7-1.9S46.1,51.7,44.4,53z"/>
</svg>
