<?xml version="1.0" encoding="utf-8"?>
<!-- Generator: Adobe Illustrator 23.1.0, SVG Export Plug-In . SVG Version: 6.00 Build 0)  -->
<svg version="1.1" id="Capa_1" xmlns="http://www.w3.org/2000/svg" xmlns:xlink="http://www.w3.org/1999/xlink" x="0px" y="0px"
	 viewBox="0 0 100 100" style="enable-background:new 0 0 100 100;" xml:space="preserve">
<style type="text/css">
	.st0{fill:#E2E2E2;}
</style>
<path class="st0" d="M50,100c-2,0-4-0.6-5.7-1.9L4,68.6c-4.3-3.2-5.3-9.2-2.1-13.6c3.2-4.3,9.2-5.3,13.6-2.1L50,78.3L84.6,53
	c4.3-3.2,10.4-2.2,13.6,2.1c3.2,4.3,2.2,10.4-2.1,13.6L55.7,98.1C54,99.4,52,100,50,100z M55.7,47L96,17.5c4.3-3.2,5.3-9.2,2.1-13.6
	C95-0.4,88.9-1.3,84.6,1.9L50,27.2L15.4,1.9C11.1-1.3,5-0.4,1.9,4C-1.3,8.3-0.4,14.4,4,17.5L44.3,47c1.7,1.2,3.7,1.9,5.7,1.9
	S54,48.3,55.7,47z"/>
</svg>
