<svg width="48" height="49" viewBox="0 0 48 49" fill="none" xmlns="http://www.w3.org/2000/svg">
<path d="M24 10.78C25.584 10.78 26.88 12.103 26.88 13.72C26.88 15.337 25.584 16.66 24 16.66C22.416 16.66 21.12 15.337 21.12 13.72C21.12 12.103 22.416 10.78 24 10.78ZM29.76 33.565V37.485C37.344 38.122 42.096 39.984 43.728 41.16C41.712 42.63 34.992 45.08 24 45.08C13.008 45.08 6.288 42.63 4.272 41.16C5.904 39.984 10.656 38.122 18.24 37.485V33.565C7.776 34.398 0 37.485 0 41.16C0 45.472 10.752 49 24 49C37.248 49 48 45.472 48 41.16C48 37.485 40.224 34.398 29.76 33.565ZM25.92 27.293V41.16H22.08V27.293C15.552 26.362 10.56 20.629 10.56 13.72C10.56 6.125 16.56 0 24 0C31.44 0 37.44 6.125 37.44 13.72C37.44 20.629 32.448 26.362 25.92 27.293ZM31.68 13.72C31.68 9.408 28.224 5.88 24 5.88C19.776 5.88 16.32 9.408 16.32 13.72C16.32 18.032 19.776 21.56 24 21.56C28.224 21.56 31.68 18.032 31.68 13.72Z" fill="#C5C5C5"/>
</svg>
