<svg width="56" height="55" viewBox="0 0 56 55" fill="none" xmlns="http://www.w3.org/2000/svg">
<path d="M31.8585 48.9803C24.9675 50.1665 17.6179 48.1508 12.2977 42.922C6.97369 37.6933 4.9213 30.4752 6.12904 23.7112C9.38918 28.1104 13.4175 32.7386 18.0421 37.2804C22.6629 41.8222 27.3792 45.7785 31.8585 48.9803ZM49.4396 33.2078C51.4461 25.9146 49.5351 17.7993 43.7066 12.0751C37.8781 6.35089 29.615 4.47035 22.1889 6.44473C20.3238 6.9402 18.516 7.67591 16.8114 8.65559C17.4268 10.9303 19.353 14.1996 22.2233 17.8744C26.5842 15.3407 32.298 15.9188 36.0512 19.601C39.8006 23.2833 40.3853 28.8949 37.8093 33.1815C41.551 36.0004 44.88 37.8922 47.1961 38.4966C48.186 36.815 48.9351 35.0395 49.4396 33.2078Z" fill="url(#paint0_linear_12_154)"/>
<path d="M54.8132 53.8337C50.3721 58.1954 34.7632 49.945 19.9569 35.3999C5.15061 20.8547 -3.25389 5.52886 1.18723 1.1672C3.81675 -1.41527 10.3523 0.420232 18.3173 5.3637C16.2114 4.58296 14.6291 4.51914 13.8265 5.3074C11.2887 7.79978 17.4612 17.9044 27.6161 27.8777C37.7711 37.851 48.0598 43.913 50.5976 41.4206C51.4002 40.6324 51.3314 39.0784 50.5403 37.0102C55.5738 44.8289 57.4389 51.2512 54.8132 53.8337Z" fill="url(#paint1_linear_12_154)"/>
<defs>
<linearGradient id="paint0_linear_12_154" x1="71.539" y1="55.0144" x2="71.539" y2="-13.4018" gradientUnits="userSpaceOnUse">
<stop stop-color="#0047BB"/>
<stop offset="0.8" stop-color="#01BEDB"/>
</linearGradient>
<linearGradient id="paint1_linear_12_154" x1="106.276" y1="58.396" x2="26.0688" y2="-23.2726" gradientUnits="userSpaceOnUse">
<stop offset="0.3" stop-color="#CC007E"/>
<stop offset="1" stop-color="#D9409E"/>
</linearGradient>
</defs>
</svg>
